# Blender v2.79 (sub 0) OBJ File: ''
# www.blender.org
mtllib myship1-smooth-tex.mtl
o myship.001
v -0.317387 -0.058129 -0.762163
v -0.361662 0.019173 -0.626973
v -0.107472 0.066670 -0.860574
v 0.000000 -0.109625 -0.925324
v 0.000000 0.210640 -0.138683
v -0.165605 0.170076 -0.549918
v -0.121727 -0.000000 0.981234
v -0.334977 0.000000 -0.241819
v 0.000000 -0.158750 0.881234
v -0.263197 -0.119154 0.055298
v 0.334977 0.000000 -0.241819
v 0.683310 -0.200000 -0.770638
v 0.361662 0.019173 -0.626973
v 0.165605 0.170076 -0.549918
v 0.121727 -0.000000 0.981234
v -0.683310 -0.200000 -0.770638
v 0.107472 0.066670 -0.860574
v 0.317387 -0.058129 -0.762163
v 0.263197 -0.119154 0.055298
v 0.000000 0.228626 -0.549918
vt 0.400171 0.632935
vt 0.359554 0.632935
vt 0.380609 0.573594
vt 0.265508 0.887465
vt 0.230860 0.831159
vt 0.294657 0.799559
vt 0.579412 0.228102
vt 0.615013 0.091810
vt 0.678421 0.582773
vt 0.073127 0.966049
vt 0.000000 0.573594
vt 0.114482 0.933893
vt 0.196502 0.037863
vt 0.433101 0.573594
vt 0.241562 0.360925
vt 0.765693 0.389698
vt 0.839211 0.590414
vt 0.743124 0.507436
vt 0.678421 0.459838
vt 0.804792 0.000000
vt 0.926482 0.200717
vt 0.965581 0.590414
vt 0.839211 0.130576
vt 0.229750 0.573594
vt 0.156616 0.966049
vt 1.000000 0.573719
vt 0.972640 0.296720
vt 0.903913 0.082978
vt 1.000000 0.000000
vt 0.502681 0.107560
vt 0.433101 0.097614
vt 0.507251 0.010221
vt 0.000000 0.167552
vt 0.313668 0.573594
vt 0.265508 0.689406
vt 0.433101 0.000000
vt 0.408383 0.296387
vt 0.230860 0.764093
vt 0.229750 0.666926
vt 0.595852 0.594349
vt 0.839211 0.016695
vt 0.811850 0.293694
vt 0.678421 0.063220
vt 0.580151 0.000000
vt 0.359554 0.683727
vt 0.313668 0.682901
vt 0.359554 0.573594
vt 0.313668 1.000000
vt 0.558533 0.097726
vn -0.3962 0.6406 -0.6577
vn -0.5467 0.8099 -0.2125
vn -0.3113 0.5804 -0.7524
vn 0.0188 -0.5133 -0.8580
vn 0.0000 0.9931 0.1170
vn -0.4619 0.8787 -0.1202
vn -0.6247 0.2237 0.7481
vn -0.7404 0.6351 0.2201
vn -0.0095 -0.9204 0.3909
vn -0.7546 -0.6091 0.2440
vn 0.7404 0.6351 0.2201
vn 0.8757 -0.2696 -0.4006
vn 0.5467 0.8099 -0.2125
vn 0.4619 0.8787 -0.1202
vn 0.6247 0.2237 0.7481
vn -0.8550 -0.2993 -0.4235
vn 0.3113 0.5804 -0.7524
vn 0.3962 0.6406 -0.6577
vn 0.7706 -0.5705 0.2841
vn 0.0000 0.9854 -0.1705
usemtl None.001
s 1
f 1/1/1 2/2/2 3/3/3
f 1/4/1 3/5/3 4/6/4
f 5/7/5 6/8/6 7/9/7
f 7/10/7 8/11/8 9/12/9
f 4/13/4 9/14/9 10/15/10
f 11/16/11 12/17/12 13/18/13 14/19/14
f 11/16/11 14/19/14 15/20/15
f 8/21/8 7/22/7 6/23/6
f 11/24/11 15/25/15 9/12/9
f 9/26/9 8/21/8 10/27/10
f 8/21/8 6/23/6 2/28/2 16/29/16
f 7/10/7 9/12/9 15/25/15
f 14/30/14 13/31/13 17/32/17
f 16/33/16 4/13/4 10/15/10
f 12/34/12 4/6/4 18/35/18
f 4/13/4 12/36/12 19/37/19 9/14/9
f 3/5/3 17/38/17 4/6/4
f 17/38/17 13/39/13 18/35/18
f 17/38/17 18/35/18 4/6/4
f 5/7/5 7/9/7 15/40/15
f 5/7/5 15/40/15 14/30/14
f 13/39/13 12/34/12 18/35/18
f 16/29/16 10/27/10 8/21/8
f 11/16/11 9/41/9 19/42/19
f 12/17/12 11/16/11 19/42/19
f 2/43/2 6/8/6 3/44/3
f 2/45/2 1/46/1 16/47/16
f 16/48/16 1/4/1 4/6/4
f 6/8/6 5/7/5 20/49/20
f 20/49/20 5/7/5 14/30/14
f 14/30/14 17/32/17 20/49/20
f 17/32/17 3/44/3 20/49/20
f 20/49/20 3/44/3 6/8/6
l 8 2
l 4 19
l 11 13
